<!--
	Copyright © 2024 by Hive.
	All rights reserved.
	thehive.ai
-->
<svg xmlns="http://www.w3.org/2000/svg" width="28" height="28" fill="none">
	<g fill-rule="evenodd">
		<path d="M14.219 1.313c.754 0 1.478.311 2.011.864s.833 1.303.833 2.085v19.915c0 .782-.3 1.532-.833 2.085s-1.257.864-2.011.864-1.478-.311-2.011-.864-.833-1.303-.833-2.085V4.261c0-.782.3-1.532.833-2.085s1.257-.864 2.011-.864z" fill="url(#A)" />
		<path d="M5.906 6.125c.754 0 1.478.317 2.011.881s.833 1.329.833 2.126v10.174c0 .798-.3 1.562-.833 2.126s-1.257.881-2.011.881-1.478-.317-2.011-.881-.833-1.329-.833-2.126V9.132c0-.798.3-1.562.833-2.126s1.257-.881 2.011-.881z" fill="url(#B)" />
		<path d="M22.531 6.125c.754 0 1.478.317 2.011.881s.833 1.329.833 2.126v10.174c0 .798-.3 1.562-.833 2.126s-1.257.881-2.011.881-1.477-.317-2.011-.881-.833-1.329-.833-2.126V9.132c0-.798.3-1.562.833-2.126s1.257-.881 2.011-.881z" fill="url(#C)" />
	</g>
	<defs>
		<linearGradient id="A" x1="14.219" y1="1.313" x2="14.219" y2="27.125" gradientUnits="userSpaceOnUse">
			<stop stop-color="#175cff" />
			<stop offset="1" stop-color="#3693f9" />
		</linearGradient>
		<linearGradient id="B" x1="5.906" y1="6.125" x2="5.906" y2="22.313" gradientUnits="userSpaceOnUse">
			<stop stop-color="#175cff" />
			<stop offset="1" stop-color="#3693f9" />
		</linearGradient>
		<linearGradient id="C" x1="22.531" y1="6.125" x2="22.531" y2="22.313" gradientUnits="userSpaceOnUse">
			<stop stop-color="#175cff" />
			<stop offset="1" stop-color="#3693f9" />
		</linearGradient>
	</defs>
</svg>