<?xml version="1.0" encoding="UTF-8"?>
<svg xmlns="http://www.w3.org/2000/svg" xmlns:xlink="http://www.w3.org/1999/xlink" version="1.1" id="Layer_1" x="0px" y="0px" width="100%" viewBox="0 0 1093 1141" enable-background="new 0 0 1093 1141" xml:space="preserve">
	<g id="ear">
		<path fill="#FF8E4D" opacity="1.000000" stroke="none" d="  M1.000000,146.464645    C2.012372,142.562302 2.838193,139.056198 4.069090,135.698608    C9.694365,120.354218 20.395185,110.022530 35.772602,104.756035    C52.928196,98.880547 69.053261,101.519142 83.590645,112.193497    C99.908852,124.175446 106.050987,141.033035 103.828545,160.568970    C101.776558,178.606598 91.732109,191.699921 75.182861,200.432343    C75.182861,199.041718 75.065071,198.235809 75.220634,197.486649    C75.342026,196.902069 75.803085,196.388016 76.289131,195.533203    C68.311119,190.665466 60.780724,185.650925 50.871151,185.854095    C45.712086,185.959869 43.256329,188.721344 42.281544,192.733063    C41.460087,196.113785 42.112488,199.852631 42.112488,203.412476    C27.029736,203.836014 3.214614,184.749573 1.389530,160.141434    C1.000000,155.643097 1.000000,151.286194 1.000000,146.464645   z" />
		<path fill="#FF8E4D" opacity="1.000000" stroke="none" d="  M697.562500,1.000002    C700.715332,1.660051 703.408752,2.433644 706.149475,2.962122    C727.536255,7.086129 742.875977,24.664906 745.826538,45.488293    C748.148865,61.877773 743.465454,76.877647 732.127319,89.121552    C728.202820,93.359596 722.754089,96.186134 717.332825,100.145866    C717.332825,94.904915 717.332825,91.049156 717.332825,86.513893    C708.966370,84.439308 700.797180,79.647751 691.258728,81.977150    C684.612488,83.600258 682.871643,86.143097 684.048645,92.628960    C684.722717,96.343231 685.745544,99.994202 686.617004,103.697823    C663.096619,101.217453 641.069336,79.927132 643.039185,48.818401    C644.533630,25.218784 663.895325,2.882457 690.851807,1.394760    C693.041687,1.000000 695.083313,1.000000 697.562500,1.000002   z" />
	</g>
	<path id="body" fill="#2c71a1" opacity="1.000000" stroke="none" d=" M833.775513,655.579712   C823.577759,665.804321 813.473633,676.110168 805.955017,688.588867   C805.110107,689.991150 804.453308,691.506714 804.121338,693.211182   C823.821228,670.477356 844.255859,648.934143 873.515991,638.038208   C870.513977,645.043518 867.325623,651.863464 864.644531,658.877258   C859.955627,671.143433 856.624390,683.782349 856.028992,696.976624   C855.544250,707.719604 854.352539,718.552673 855.197021,729.209229   C857.168640,754.088989 863.628601,777.741272 877.968628,798.690857   C887.809998,813.068359 900.521545,823.566101 918.230042,825.818909   C930.305908,827.355225 941.132507,822.780396 950.839600,815.657043   C962.304077,807.244080 969.672363,795.646118 975.974487,783.228760   C976.988831,781.230164 977.951355,779.205139 979.133362,776.793579   C982.595825,778.109741 985.868103,779.204529 988.987366,780.633240   C989.884705,781.044312 990.967346,782.463257 990.904419,783.344421   C990.088013,794.782227 989.204346,806.218628 988.079590,817.630005   C987.249268,826.054565 986.473511,834.523010 984.914429,842.829468   C981.403687,861.533691 977.844910,880.248169 973.528137,898.777344   C967.647583,924.019165 957.422546,947.808228 946.780396,971.294189   C939.431824,987.511475 930.819458,1003.216675 921.885132,1018.637024   C913.579895,1032.971436 902.862610,1045.615723 890.617798,1056.856445   C877.621399,1068.787354 862.815247,1077.808960 846.280151,1083.953979   C833.938477,1088.540527 821.210632,1090.947510 808.048767,1092.199585   C792.323425,1093.695557 776.808044,1092.784302 761.269226,1090.958008   C749.007935,1089.516846 736.606506,1088.501831 724.609253,1085.786743   C711.364746,1082.789429 698.386597,1078.428711 685.517517,1074.006836   C670.312805,1068.782471 657.350769,1059.312988 644.105896,1050.514282   C634.484497,1044.122681 623.463074,1041.777832 612.600281,1039.078491   C591.517578,1033.839722 569.916199,1032.636841 548.434937,1034.261475   C528.723145,1035.752319 509.798126,1041.121460 493.250519,1052.932007   C483.510529,1059.883667 475.967957,1068.716919 469.107391,1078.395630   C455.994965,1096.894043 440.183258,1112.506226 419.170258,1121.930786   C405.544983,1128.041870 390.966003,1131.289062 376.286957,1128.731445   C356.044342,1125.204834 337.283478,1117.365845 320.453766,1105.079468   C303.593933,1092.771362 289.656891,1078.095581 278.862854,1060.112183   C270.361359,1045.947998 264.039368,1030.984619 258.780426,1015.444275   C251.905502,995.128540 245.343689,974.693542 237.889343,954.590820   C229.705658,932.521179 220.981918,910.635986 211.872849,888.930969   C206.171799,875.346619 200.193771,861.734070 192.764664,849.057434   C184.222275,834.481018 174.287094,820.671936 164.330170,806.985474   C151.083679,788.777100 133.422531,775.302490 114.675774,763.258972   C101.227280,754.619385 86.497124,748.776428 70.973480,745.039978   C63.795933,743.312439 56.514679,742.015808 48.897137,740.444763   C49.128963,726.093262 53.612526,712.936707 60.864498,700.709778   C71.009224,683.605530 85.334068,670.762146 102.908920,661.688049   C115.500641,655.186829 128.842972,650.696045 142.820877,647.928467   C164.063614,643.722534 185.550781,641.838562 207.046326,643.198914   C239.439240,645.249023 271.271637,650.425781 300.233521,666.652832   C319.912781,677.678772 336.120026,692.386230 349.038818,710.901794   C362.271332,729.867065 378.387329,745.752380 399.845245,755.316162   C410.175201,759.920227 420.953400,763.316345 432.349396,763.956116   C442.087158,764.502686 451.862762,765.185059 461.592285,764.878052   C476.047272,764.421875 490.172852,761.627380 504.089661,757.521118   C522.987061,751.945374 539.348511,742.101929 553.062927,728.236206   C565.763489,715.395630 575.583130,700.229858 585.499695,685.162537   C596.941284,667.778076 608.762390,650.627136 620.933777,633.746155   C627.125916,625.158020 633.923889,616.861877 641.391602,609.374939   C650.660706,600.081970 660.339844,590.997864 670.864441,583.204468   C686.392151,571.706360 702.320129,560.560486 719.016235,550.884155   C734.119507,542.130920 750.116211,534.615295 766.384277,528.255798   C784.862061,521.032471 803.949341,515.254089 823.022034,509.709015   C834.733582,506.304047 846.864136,504.235626 858.895325,502.057556   C882.538757,497.777130 906.480591,497.166565 930.378784,498.147522   C953.742188,499.106537 976.483826,503.292145 998.234253,512.829468   C1015.446228,520.376709 1029.704956,531.517029 1041.616089,545.486938   C1049.084106,554.245850 1054.608643,564.659058 1061.033691,574.311035   C1063.895752,578.610718 1066.828003,582.863770 1069.601562,586.950989   C1060.353638,592.025085 1050.857422,597.235352 1042.547363,601.794739   C1033.744873,594.396240 1025.281494,586.660706 1016.164734,579.792786   C1006.776489,572.720398 995.672791,568.806152 984.166687,567.187195   C973.294495,565.657410 962.144531,564.608826 951.226013,565.239624   C933.301514,566.275269 915.683533,570.041626 898.915955,576.671082   C887.147339,581.324036 875.588135,586.570129 864.198547,592.093994   C857.571655,595.308105 851.126282,599.145569 845.257935,603.575195   C842.064331,605.985901 840.631897,610.598083 837.729553,613.553833   C831.793579,619.598938 825.646484,625.490112 819.141541,630.910889   C808.508301,639.771851 796.534058,647.249207 786.967957,657.099487   C778.054871,666.277405 771.077332,677.487061 764.075378,688.336548   C750.402283,709.523193 740.769287,732.642578 733.726685,756.794739   C730.088745,769.270874 727.213196,781.969543 724.023804,794.575378   C723.866699,795.196289 724.003540,795.891602 724.003540,797.653992   C725.321594,795.739624 726.151855,794.690308 726.816772,793.544922   C740.213989,770.466675 753.229126,747.156738 767.084045,724.357178   C779.110596,704.566528 793.001709,686.032959 809.749207,669.907776   C816.239563,663.658569 823.094055,657.558044 832.748108,655.131714   C833.482117,655.372620 833.628784,655.476135 833.775513,655.579712  M801.270813,696.207642   C800.486450,698.114258 799.702148,700.020874 798.357056,702.120728   C798.316589,702.660339 798.276123,703.200012 798.235535,703.739563   C798.675110,703.424683 799.114624,703.109863 800.114441,702.315674   C800.999023,700.406799 801.883606,698.497925 803.329773,696.101379   C803.583130,695.347107 803.836548,694.592834 804.089905,693.838562   C803.762024,693.706421 803.434143,693.574219 803.106262,693.442078   C802.711670,694.268982 802.317139,695.095947 801.270813,696.207642  z" />
	<path id="head" fill="#2c71a1" opacity="1.000000" stroke="none" d=" M111.273743,531.918518   C109.849495,529.615234 108.391388,527.332031 107.006744,525.005188   C100.344276,513.809387 92.392540,503.153412 87.380722,491.259796   C81.005981,476.131805 76.283066,460.184448 72.236946,444.237946   C69.062935,431.728638 67.754860,418.715912 66.073997,405.867126   C64.699814,395.362610 62.618305,384.675201 63.334377,374.239349   C64.326370,359.782349 66.842880,345.292786 70.220062,331.179321   C72.995560,319.580383 76.984245,308.023560 82.220894,297.321838   C89.481804,282.483307 99.227943,269.171967 110.436058,256.762848   C126.571907,238.897964 144.835236,223.782761 165.292053,211.440781   C180.975281,201.978790 197.439423,193.810379 213.580795,185.112167   C214.081543,184.842346 214.854706,185.078003 215.938492,185.078003   C209.381134,197.278931 205.539474,209.883652 206.065536,224.083740   C216.615097,222.155457 226.849548,220.171860 237.126312,218.439209   C246.724594,216.820923 256.366425,215.459976 265.991608,214.002335   C276.902435,212.349991 287.796448,210.567917 298.734467,209.119278   C308.116638,207.876694 317.552734,207.044479 326.961029,205.994980   C338.632416,204.693039 350.295868,203.318634 361.970856,202.050095   C366.209106,201.589584 370.467102,201.289642 374.722260,201.009888   C390.308960,199.985123 405.899780,199.022888 421.485077,197.977707   C424.241333,197.792862 427.100739,197.691772 429.674927,196.836700   C431.038086,196.383896 432.279144,194.558212 432.913879,193.070175   C441.191132,173.665848 453.816162,157.783173 472.070557,147.140060   C485.177765,139.497986 499.773376,138.406021 514.671265,140.816956   C517.268494,141.237289 520.016602,140.686188 522.630920,141.047424   C533.223755,142.511154 543.858459,143.807861 554.351257,145.824417   C566.676331,148.193130 579.037659,150.667496 591.074402,154.160446   C603.506104,157.768005 615.796753,162.107590 627.727234,167.129227   C640.429260,172.475616 653.115479,178.191605 664.934998,185.216034   C678.636780,193.359070 691.603394,202.815781 704.348389,212.419800   C706.592590,214.110931 706.677307,219.292191 706.914551,222.916946   C708.098022,240.992737 709.045349,259.084747 709.920532,277.178589   C709.997864,278.777588 709.431824,280.897858 708.361450,281.985840   C698.504639,292.004913 691.741028,303.446106 690.977356,317.838959   C690.024536,335.795258 692.731995,352.833527 705.984680,366.116943   C709.705017,369.845886 715.429138,372.434296 720.666992,373.598694   C729.559570,375.575592 738.845093,375.275757 747.680176,372.629639   C757.594971,369.660187 764.021790,362.361084 766.844604,352.831238   C774.380432,327.389893 769.865601,304.361664 751.225342,284.776733   C749.895935,283.379974 748.316467,282.102966 746.627380,281.186615   C737.869019,276.435150 736.426575,267.473816 734.126404,259.189392   C732.034058,251.654007 730.729858,243.899826 729.830688,235.689270   C732.875793,238.954102 736.250732,241.972778 738.905334,245.529144   C747.415222,256.929993 756.052063,268.268677 763.914062,280.113129   C776.139343,298.530945 784.665955,318.723663 791.018066,339.886963   C795.051697,353.325775 798.092957,366.871582 798.011230,380.990662   C797.953308,390.994049 798.725830,401.063477 797.831055,410.986511   C796.464050,426.145752 791.562561,440.173035 781.476135,452.090088   C771.765015,463.563751 759.610962,471.846405 746.538635,478.700073   C730.349365,487.187988 713.842957,495.088837 697.311584,502.900604   C684.996765,508.719849 672.420471,513.985352 659.974854,519.529419   C658.956299,519.983093 658.047241,520.682556 656.538452,521.590332   C645.532043,526.659424 635.029907,531.311279 624.639465,536.200439   C620.602844,538.099854 616.818359,540.535095 612.919067,542.726318   C607.402893,544.896057 601.792908,546.856262 596.389282,549.277283   C583.378479,555.106384 570.543274,561.331116 557.489502,567.059631   C543.702087,573.110168 529.961670,579.379822 515.805481,584.450195   C497.417145,591.036377 478.771423,597.003235 459.975220,602.311401   C449.756805,605.197144 439.051849,606.627563 428.467712,607.881653   C415.777679,609.385132 402.989685,610.107605 390.230316,610.962646   C382.159393,611.503479 374.059784,611.600708 365.979309,612.018188   C354.305878,612.621155 342.610382,614.194153 330.973724,613.819397   C307.371521,613.059326 284.025330,610.094543 260.916382,604.653809   C240.803360,599.918335 222.117737,591.400818 202.650131,585.011353   C192.612442,581.716919 182.039261,579.827576 172.335922,575.793213   C157.268936,569.528687 142.929550,561.684021 130.818634,550.370056   C127.965431,547.704590 124.798721,545.374756 121.404572,542.473633   C117.779869,538.677246 114.526802,535.297913 111.273743,531.918518  M184.831528,308.239410   C182.875427,309.157227 180.948715,310.144989 178.958679,310.982117   C158.368240,319.643524 139.585861,330.983795 124.733139,348.000702   C122.258804,350.835571 119.855270,354.044128 118.519409,357.504761   C113.718445,369.942017 111.223106,382.992676 111.229324,396.281586   C111.234734,407.854187 112.110649,419.454651 113.163391,430.991547   C114.574486,446.455353 118.839844,461.262268 125.763184,475.146088   C137.908096,499.501038 157.959259,515.431702 182.595947,525.504700   C212.034531,537.541016 243.262024,541.906677 274.754364,542.644653   C301.129761,543.262756 327.567108,541.795776 353.961121,540.821350   C367.006287,540.339783 380.065887,539.310669 393.029205,537.773071   C412.027832,535.519531 431.037689,533.111511 449.875671,529.814575   C474.737671,525.463379 499.531097,520.612244 524.183289,515.198547   C552.506226,508.978760 580.270447,500.608429 607.323853,490.140869   C622.925781,484.104156 638.188049,477.186096 653.560059,470.564819   C654.800232,470.030640 655.705994,468.720184 656.767090,467.770447   C655.887146,466.921173 655.100830,465.938660 654.111938,465.244568   C648.174927,461.076874 641.737000,457.496277 636.305725,452.757538   C617.461182,436.315674 607.387512,414.540649 601.056885,390.996399   C597.012329,375.953979 593.005127,360.739044 593.880981,344.851471   C593.925598,344.041992 593.564880,343.215851 593.563660,342.397217   C593.544128,329.128235 593.259277,315.850555 593.651184,302.593079   C593.939026,292.853943 595.277710,283.148438 595.727295,273.408508   C595.790527,272.038788 593.563599,269.427216 592.213318,269.297394   C568.853271,267.051392 545.497559,264.315948 522.071838,263.333405   C502.168610,262.498596 482.176178,263.703827 462.225800,264.127686   C455.435211,264.271942 448.638489,264.614075 441.868958,265.165192   C427.046417,266.371948 412.238739,267.761658 397.426453,269.093201   C386.068634,270.114136 374.688690,270.947968 363.362488,272.247406   C348.120575,273.996094 332.904236,275.992889 317.707520,278.103455   C301.365265,280.373138 284.957947,282.366180 268.758362,285.428619   C240.465149,290.777313 212.584381,297.857208 184.831528,308.239410  z" />
	<g id="eyes">
		<path fill="#000000" opacity="1.000000" stroke="none" d=" M185.210312,308.158173   C212.584381,297.857208 240.465149,290.777313 268.758362,285.428619   C284.957947,282.366180 301.365265,280.373138 317.707520,278.103455   C332.904236,275.992889 348.120575,273.996094 363.362488,272.247406   C374.688690,270.947968 386.068634,270.114136 397.426453,269.093201   C412.238739,267.761658 427.046417,266.371948 441.868958,265.165192   C448.638489,264.614075 455.435211,264.271942 462.225800,264.127686   C482.176178,263.703827 502.168610,262.498596 522.071838,263.333405   C545.497559,264.315948 568.853271,267.051392 592.213318,269.297394   C593.563599,269.427216 595.790527,272.038788 595.727295,273.408508   C595.277710,283.148438 593.939026,292.853943 593.651184,302.593079   C593.259277,315.850555 593.544128,329.128235 593.563660,342.397217   C593.564880,343.215851 593.925598,344.041992 593.880981,344.851471   C593.005127,360.739044 597.012329,375.953979 601.056885,390.996399   C607.387512,414.540649 617.461182,436.315674 636.305725,452.757538   C641.737000,457.496277 648.174927,461.076874 654.111938,465.244568   C655.100830,465.938660 655.887146,466.921173 656.767090,467.770447   C655.705994,468.720184 654.800232,470.030640 653.560059,470.564819   C638.188049,477.186096 622.925781,484.104156 607.323853,490.140869   C580.270447,500.608429 552.506226,508.978760 524.183289,515.198547   C499.531097,520.612244 474.737671,525.463379 449.875671,529.814575   C431.037689,533.111511 412.027832,535.519531 393.029205,537.773071   C380.065887,539.310669 367.006287,540.339783 353.961121,540.821350   C327.567108,541.795776 301.129761,543.262756 274.754364,542.644653   C243.262024,541.906677 212.034531,537.541016 182.595947,525.504700   C157.959259,515.431702 137.908096,499.501038 125.763184,475.146088   C118.839844,461.262268 114.574486,446.455353 113.163391,430.991547   C112.110649,419.454651 111.234734,407.854187 111.229324,396.281586   C111.223106,382.992676 113.718445,369.942017 118.519409,357.504761   C119.855270,354.044128 122.258804,350.835571 124.733139,348.000702   C139.585861,330.983795 158.368240,319.643524 178.958679,310.982117   C180.948715,310.144989 182.875427,309.157227 185.210312,308.158173  M386.356049,422.890656   C389.501740,429.838440 392.207184,437.028625 395.874542,443.689148   C407.467072,464.743103 422.868561,482.240051 445.063721,492.571045   C469.299011,503.851654 491.086243,498.402771 506.504974,478.729401   C522.633118,458.150879 526.159180,433.664795 523.805054,408.471680   C522.055786,389.751617 516.357910,371.870605 507.207550,355.255432   C495.575867,334.134674 480.204803,316.714630 457.939026,306.416534   C440.433228,298.319885 423.185608,298.592834 407.035187,309.955353   C397.377899,316.749634 391.595825,326.641479 386.779449,337.207916   C378.675293,354.987061 377.250000,373.655334 379.806519,392.645416   C381.144135,402.581268 383.928314,412.322418 386.356049,422.890656  M181.067886,429.150177   C181.347031,430.101715 181.648834,431.047272 181.902008,432.005646   C190.272690,463.690338 205.965652,490.332520 234.477493,508.074158   C244.809021,514.502991 256.082153,518.877441 268.292938,517.855652   C283.365479,516.594299 295.137360,508.677307 303.079712,495.860901   C315.603760,475.651093 318.405640,453.488861 314.691254,430.354858   C312.180634,414.718109 307.034027,399.944489 299.171967,386.132843   C287.745758,366.059937 272.704285,349.880585 251.369522,339.986633   C230.034592,330.092560 211.153870,334.783600 197.575317,349.049530   C184.829941,362.440125 179.619812,379.467651 179.084473,397.627808   C178.783844,407.825867 180.266449,418.076508 181.067886,429.150177  z" />
		<path fill="#FFFFFF" opacity="1.000000" stroke="none" d="  M386.207642,422.521057    C383.928314,412.322418 381.144135,402.581268 379.806519,392.645416    C377.250000,373.655334 378.675293,354.987061 386.779449,337.207916    C391.595825,326.641479 397.377899,316.749634 407.035187,309.955353    C423.185608,298.592834 440.433228,298.319885 457.939026,306.416534    C480.204803,316.714630 495.575867,334.134674 507.207550,355.255432    C516.357910,371.870605 522.055786,389.751617 523.805054,408.471680    C526.159180,433.664795 522.633118,458.150879 506.504974,478.729401    C491.086243,498.402771 469.299011,503.851654 445.063721,492.571045    C422.868561,482.240051 407.467072,464.743103 395.874542,443.689148    C392.207184,437.028625 389.501740,429.838440 386.207642,422.521057   M412.091980,418.629547    C411.578644,427.432281 412.828278,435.758942 418.147308,443.165222    C427.690674,456.453430 445.112732,455.487579 453.543243,443.923431    C462.083679,432.208649 463.018951,419.396942 457.905792,406.343018    C452.515625,392.581879 439.236694,386.333160 427.721191,391.910278    C417.206543,397.002655 412.748932,406.331268 412.091980,418.629547   z" />
		<path fill="#FFFFFF" opacity="1.000000" stroke="none" d="  M181.006760,428.726807    C180.266449,418.076508 178.783844,407.825867 179.084473,397.627808    C179.619812,379.467651 184.829941,362.440125 197.575317,349.049530    C211.153870,334.783600 230.034592,330.092560 251.369522,339.986633    C272.704285,349.880585 287.745758,366.059937 299.171967,386.132843    C307.034027,399.944489 312.180634,414.718109 314.691254,430.354858    C318.405640,453.488861 315.603760,475.651093 303.079712,495.860901    C295.137360,508.677307 283.365479,516.594299 268.292938,517.855652    C256.082153,518.877441 244.809021,514.502991 234.477493,508.074158    C205.965652,490.332520 190.272690,463.690338 181.902008,432.005646    C181.648834,431.047272 181.347031,430.101715 181.006760,428.726807   M203.429672,450.850281    C204.340546,454.178284 204.863861,457.676758 206.238068,460.800964    C209.765030,468.819397 215.396912,474.788086 224.554199,475.826080    C233.989960,476.895599 240.982025,473.284027 245.804688,464.627777    C253.894409,450.107513 254.530151,436.084229 244.939743,422.092407    C236.984512,410.486206 218.132690,410.692810 209.939102,422.185455    C203.896744,430.660675 202.475372,440.016388 203.429672,450.850281   z" />
		<g id="pupills">
			<path fill="#000000" opacity="1.000000" stroke="none" d="  M412.092102,418.159180    C412.748932,406.331268 417.206543,397.002655 427.721191,391.910278    C439.236694,386.333160 452.515625,392.581879 457.905792,406.343018    C463.018951,419.396942 462.083679,432.208649 453.543243,443.923431    C445.112732,455.487579 427.690674,456.453430 418.147308,443.165222    C412.828278,435.758942 411.578644,427.432281 412.092102,418.159180   z" />
		<path fill="#000000" opacity="1.000000" stroke="none" d="  M203.279968,450.426514    C202.475372,440.016388 203.896744,430.660675 209.939102,422.185455    C218.132690,410.692810 236.984512,410.486206 244.939743,422.092407    C254.530151,436.084229 253.894409,450.107513 245.804688,464.627777    C240.982025,473.284027 233.989960,476.895599 224.554199,475.826080    C215.396912,474.788086 209.765030,468.819397 206.238068,460.800964    C204.863861,457.676758 204.340546,454.178284 203.279968,450.426514   z" />
		</g>
	</g>
</svg>